<svg width="21" height="22" viewBox="0 0 21 22" fill="none" xmlns="http://www.w3.org/2000/svg">
<ellipse cx="10.597" cy="11.7695" rx="9.64027" ry="10.0036" fill="black"/>
<path d="M9.70198 17.6879V8.23332H11.1546V17.6879H9.70198ZM10.4406 6.65756C10.1575 6.65756 9.91331 6.56113 9.70814 6.36826C9.50706 6.1754 9.40653 5.94355 9.40653 5.67271C9.40653 5.40188 9.50706 5.17003 9.70814 4.97716C9.91331 4.7843 10.1575 4.68787 10.4406 4.68787C10.7238 4.68787 10.9659 4.7843 11.1669 4.97716C11.3721 5.17003 11.4747 5.40188 11.4747 5.67271C11.4747 5.94355 11.3721 6.1754 11.1669 6.36826C10.9659 6.56113 10.7238 6.65756 10.4406 6.65756Z" fill="white"/>
</svg>
