<svg width="110" height="71" viewBox="0 0 110 71" fill="none" xmlns="http://www.w3.org/2000/svg">
<path d="M99.9214 53.4431C100.598 60.9254 94.3108 67.1823 86.8319 66.4697L13.9335 59.523C8.0759 58.9648 3.48711 54.2417 3.09814 48.3704L1.08917 18.0462C0.649729 11.4131 5.6864 5.6867 12.3213 5.27589L83.4603 0.871242C89.9429 0.469865 95.5682 5.29905 96.1531 11.7677L99.9214 53.4431Z" fill="#1E1E1E"/>
<path d="M34.7577 14.804C34.7577 16.715 34.4815 18.3173 33.9304 19.6085C32.6708 19.4818 31.3471 19.381 29.9593 19.3084C28.5704 19.2359 27.1524 19.1904 25.704 19.1719C25.2379 19.1535 24.5481 19.1449 23.6346 19.1449C24.928 19.2543 26.1526 19.4548 27.3073 19.745C27.4798 21.4371 27.566 23.4489 27.566 25.778C27.566 28.1071 27.488 29.6725 27.333 30.746C26.1258 30.9465 24.8243 31.0461 23.4272 31.0461C21.7027 31.0461 20.2019 30.8997 18.926 30.6095C18.7536 28.8449 18.6674 27.17 18.6674 25.5861C18.6674 23.6395 18.8048 21.5096 19.081 19.1978C16.2006 19.2888 13.7956 19.4437 11.8637 19.6614C11.5876 18.7514 11.4501 17.6594 11.4501 16.3854C11.4501 15.1114 11.5794 13.9284 11.8381 12.7824C14.701 12.3827 18.5974 12.1823 23.5298 12.1823C25.8229 12.1823 27.9657 12.2364 29.9582 12.3458C31.9495 12.4552 33.5237 12.6102 34.6784 12.8094C34.7297 13.4648 34.7565 14.1289 34.7565 14.8028L34.7577 14.804Z" fill="white"/>
<path d="M62.0083 20.4134C62.6888 23.7348 63.2283 27.1706 63.6256 30.7184C62.6422 30.845 61.3966 30.9459 59.8877 31.0184C58.3787 31.091 56.8488 31.1279 55.2956 31.1279C52.985 31.1279 50.9843 31.0455 49.2948 30.8819C49.3286 29.9535 49.2855 28.9254 49.1654 27.7966C48.217 27.8335 47.4106 27.8199 46.7465 27.756C46.0823 27.692 45.3191 27.5334 44.4568 27.2789C44.1632 28.4434 43.8102 29.6903 43.3965 31.0184C42.9129 31.0369 42.2231 31.0455 41.3271 31.0455C38.8266 31.0455 36.791 30.909 35.2226 30.636C35.9986 28.4704 36.6407 26.509 37.1498 24.753C37.6579 22.997 38.0937 21.1536 38.456 19.2242C37.9212 19.2783 37.4039 19.3976 36.904 19.5796C36.7141 18.9795 36.6197 18.1236 36.6197 17.0132C36.6197 16.1032 36.6838 15.2067 36.8143 14.3238C36.9436 13.4409 37.1032 12.8002 37.2932 12.3993C39.1377 12.2542 41.4576 12.1804 44.2518 12.1804C47.5283 12.1804 50.6884 12.2763 53.7319 12.4669C56.7754 12.6575 58.8495 12.8814 59.9529 13.1359C60.6427 14.6644 61.3278 17.0907 62.0095 20.4109L62.0083 20.4134ZM48.8811 25.3679C48.5013 22.5654 48.0364 20.1268 47.484 18.0511L46.165 18.1335C45.8551 20.6089 45.4752 22.8752 45.0266 24.9313C46.2338 24.9129 47.5178 25.0592 48.8811 25.3679Z" fill="white"/>
<path d="M76.4894 14.5808C76.4894 16.1831 76.2645 17.5838 75.8171 18.7852C75.1098 18.6586 74.3816 18.5577 73.6312 18.4852C72.8808 18.4126 72.135 18.3671 71.394 18.3487C71.1528 18.3302 70.7986 18.3216 70.3336 18.3216C70.9197 18.3942 71.5583 18.5589 72.2481 18.8135C72.3856 20.9618 72.4555 23.1175 72.4555 25.283C72.4555 27.4485 72.3949 29.2685 72.2749 30.743C71.7063 30.9434 71.0852 31.043 70.4129 31.043C69.5856 31.043 68.869 30.8967 68.2654 30.6065C68.1267 28.3499 68.058 26.53 68.058 25.1465C68.058 22.89 68.1873 20.6236 68.446 18.3487C66.7728 18.4397 65.4363 18.6032 64.4365 18.8406C64.1604 18.0585 64.0229 17.103 64.0229 15.9741C64.0229 14.8452 64.1522 13.7815 64.4109 12.7805C65.9117 12.3809 67.9543 12.1804 70.541 12.1804C71.7307 12.1804 72.8517 12.2345 73.9038 12.344C74.956 12.4534 75.7833 12.6084 76.3869 12.8076C76.4556 13.6081 76.4906 14.1996 76.4906 14.5821L76.4894 14.5808Z" fill="white"/>
<path d="M78.1451 20.7232C78.1451 17.7018 78.2395 14.9903 78.4295 12.5874C78.6532 12.478 79.0202 12.387 79.5282 12.3144C80.0363 12.2418 80.5676 12.205 81.1187 12.205C81.8773 12.205 82.4809 12.2775 82.9295 12.4238C82.7221 15.7539 82.6195 18.7852 82.6195 21.5151C82.6195 24.8095 82.7838 27.8481 83.1112 30.6335C82.9213 30.7601 82.5974 30.856 82.1406 30.92C81.6839 30.9839 81.1875 31.0159 80.6538 31.0159C79.7741 31.0159 79.0843 30.9335 78.5844 30.77C78.2908 27.7485 78.1451 24.4 78.1451 20.7232Z" fill="white"/>
<path d="M24.8942 49.6767C25.0491 50.0961 25.1703 50.5965 25.2565 51.1782C25.3428 51.7611 25.3859 52.3526 25.3859 52.9527C25.3859 53.1716 25.3684 53.4987 25.3346 53.9352C24.6623 54.3533 23.6963 54.5636 22.4379 54.5636C21.7994 54.5636 21.1748 54.5095 20.5631 54.4001C19.9502 54.2906 19.4468 54.1455 19.0495 53.9635C18.8258 53.2909 18.6568 52.2431 18.545 50.824C18.4331 49.405 18.3772 47.9945 18.3772 46.5926C18.3772 46.0466 18.3947 45.4465 18.4284 44.7911C18.2385 44.8095 17.9111 44.855 17.445 44.9276C17.2726 44.1086 17.1863 43.281 17.1863 42.4435C17.1863 41.8434 17.2201 41.3159 17.29 40.8597C17.5825 40.7871 18.0404 40.6961 18.6615 40.5867C18.679 39.8402 18.7477 39.0311 18.8689 38.1568C19.0926 37.9932 19.4503 37.8653 19.942 37.7743C20.4338 37.6833 20.9383 37.6378 21.4557 37.6378C22.008 37.6378 22.4729 37.6919 22.8527 37.8014C22.6978 38.6573 22.5428 39.5119 22.3867 40.3678C23.3002 40.3862 24.3092 40.4403 25.4127 40.5313C25.4127 42.0058 25.2484 43.4347 24.921 44.8169C24.0762 44.6902 23.0846 44.6078 21.9462 44.5709C21.8949 45.6629 21.8681 46.6283 21.8681 47.4645C21.8681 48.3007 21.9019 49.1565 21.9718 50.0309C22.8516 50.0493 23.8257 49.9313 24.8953 49.6755L24.8942 49.6767Z" fill="white"/>
<path d="M28.4516 52.7486C27.305 51.5926 26.7318 49.8501 26.7318 47.5211C26.7318 45.6285 27.1279 43.4261 27.9214 40.915C29.7147 40.4059 31.2924 40.1501 32.6557 40.1501C34.5864 40.1501 36.079 40.6925 37.1312 41.7746C38.1834 42.858 38.7089 44.555 38.7089 46.8656C38.7089 48.7409 38.3547 51.0061 37.6486 53.6635C36.0452 54.2095 34.5351 54.4825 33.1217 54.4825C31.156 54.4825 29.5993 53.9045 28.4528 52.7486H28.4516ZM34.1553 48.0941C34.1553 47.1841 33.9607 46.493 33.5738 46.0196C33.1858 45.5461 32.6032 45.31 31.8272 45.31C31.3098 45.31 30.7575 45.401 30.1714 45.583C30.0165 46.3664 29.9384 47.0575 29.9384 47.6576C29.9384 48.5306 30.0852 49.2267 30.3777 49.7456C30.6713 50.2645 31.0931 50.6285 31.6454 50.8376C32.1966 51.0466 32.8782 51.1057 33.6892 51.0147C33.9991 49.887 34.1553 48.9131 34.1553 48.0941Z" fill="white"/>
<path d="M55.1885 49.5637C55.3435 50.0187 55.4647 50.5512 55.5509 51.1611C55.6371 51.771 55.6802 52.3859 55.6802 53.0045C55.6802 53.2406 55.6627 53.5959 55.629 54.0694C54.1631 54.4875 52.0762 54.6978 49.3695 54.6978C48.0073 54.6978 46.6662 54.6437 45.3472 54.5342C44.0282 54.4248 42.9457 54.2797 42.1009 54.0977C41.8772 53.425 41.7082 52.3773 41.5964 50.9582C41.4845 49.5391 41.4286 48.1286 41.4286 46.7268C41.4286 46.1808 41.4461 45.5807 41.4799 44.9252C40.8239 44.9621 40.1609 45.0076 39.4885 45.0617C39.3161 44.2427 39.2299 43.4151 39.2299 42.5777C39.2299 41.9776 39.2636 41.4501 39.3336 40.9938C40.3333 40.8844 41.1268 40.8118 41.7129 40.7749C41.7304 40.0285 41.7991 39.2009 41.9203 38.2909C42.2827 38.0905 42.9725 37.9318 43.9897 37.8138C45.0069 37.6957 46.0416 37.6367 47.0938 37.6367C48.4909 37.6367 49.3869 37.7376 49.7843 37.9368C49.5769 38.8283 49.4044 39.6842 49.2669 40.5032C51.2676 40.5032 53.4139 40.5573 55.7082 40.6667C55.7082 42.1412 55.5439 43.5701 55.2165 44.9523C53.4057 44.8256 51.2583 44.7432 48.7752 44.7063C48.7065 45.7614 48.6715 46.7034 48.6715 47.5322C48.6715 48.3611 48.7228 49.1837 48.8265 50.0027C51.0334 50.0027 53.1552 49.8576 55.1897 49.5662L55.1885 49.5637Z" fill="white"/>
<path d="M85.9966 51.3517C86.0828 51.9247 86.1259 52.4756 86.1259 53.0032C86.1259 53.4397 86.1003 53.8222 86.0478 54.1493C85.0306 54.4591 83.9097 54.6129 82.685 54.6129C81.2367 54.6129 79.8909 54.394 78.6499 53.9574C77.409 53.5209 76.4943 52.8839 75.9082 52.0464C75.2184 52.847 74.1185 53.4975 72.6107 53.998C71.1017 54.4985 69.3807 54.7494 67.45 54.7494C65.2419 54.7494 63.0525 54.4309 60.8794 53.7939C60.5694 53.1569 60.3317 52.4154 60.1675 51.5693C60.0032 50.7233 59.9216 49.8539 59.9216 48.9623C59.9216 48.5983 59.9344 48.2294 59.96 47.8568C59.9857 47.4842 60.0335 47.1337 60.1022 46.8054C59.7049 46.8054 59.3297 46.8189 58.9766 46.846C58.6224 46.873 58.2822 46.9321 57.9547 47.0231C57.7998 46.3676 57.6739 45.5806 57.5795 44.662C57.4852 43.7434 57.4374 42.8654 57.4374 42.028C57.4374 41.7009 57.4549 41.2631 57.4886 40.7171C58.6608 40.481 60.4203 40.3617 62.7659 40.3617C64.4216 40.3617 66.0599 40.4293 67.6807 40.5671C69.3015 40.7036 70.6298 40.8991 71.6645 41.1536C71.7682 41.9911 71.8195 42.7375 71.8195 43.3917C71.8195 43.902 71.7939 44.4062 71.7414 44.9067C71.6902 45.4072 71.6296 45.8671 71.5608 46.2852C71.5259 46.6308 71.4874 46.9813 71.4443 47.3366C71.4012 47.692 71.3802 48.0154 71.3802 48.3057C71.3802 48.8885 71.6296 49.4161 72.1306 49.8895C72.6305 50.363 73.3459 50.5991 74.2781 50.5991C74.8129 50.5991 75.3466 50.5265 75.8814 50.3802C76.0364 49.2882 76.1144 48.206 76.1144 47.1313C76.1144 45.2387 75.8733 43.1089 75.3897 40.7429C75.7521 40.6163 76.3253 40.5203 77.1095 40.4564C77.8937 40.3924 78.7606 40.3605 79.7091 40.3605C81.3812 40.3605 82.7445 40.4515 83.7966 40.6335C83.9003 41.8533 83.9516 43.0179 83.9516 44.1283C83.9516 46.1856 83.7873 48.1507 83.4599 50.0248C83.7873 50.0617 84.1753 50.0568 84.6239 50.0113C85.0725 49.9658 85.4081 49.8981 85.633 49.8059C85.788 50.2609 85.9092 50.7749 85.9954 51.348L85.9966 51.3517Z" fill="white"/>
</svg>
